<svg width="129" height="38" viewBox="0 0 129 38" fill="none" xmlns="http://www.w3.org/2000/svg">
<rect x="0.2" y="0.2" width="128.6" height="37.6" rx="18.8" fill="#E51E1E"/>
<rect x="0.2" y="0.2" width="128.6" height="37.6" rx="18.8" fill="white" fill-opacity="0.81"/>
<rect x="0.2" y="0.2" width="128.6" height="37.6" rx="18.8" stroke="#73120F" stroke-width="0.4"/>
<path d="M27.0372 10.4294C27.3104 9.45645 28.6896 9.45645 28.9628 10.4294L30.4786 15.8289C30.5729 16.1647 30.8353 16.4271 31.1711 16.5214L36.5706 18.0372C37.5435 18.3104 37.5435 19.6896 36.5706 19.9628L31.1711 21.4786C30.8353 21.5729 30.5729 21.8353 30.4786 22.1711L28.9628 27.5706C28.6896 28.5435 27.3104 28.5435 27.0372 27.5706L25.5214 22.1711C25.4271 21.8353 25.1647 21.5729 24.8289 21.4786L19.4294 19.9628C18.4565 19.6896 18.4565 18.3104 19.4294 18.0372L24.8289 16.5214C25.1647 16.4271 25.4271 16.1647 25.5214 15.8289L27.0372 10.4294Z" fill="#73120F"/>
<path d="M48.642 24H46.392L50.4886 12.3636H53.0909L57.1932 24H54.9432L51.8352 14.75H51.7443L48.642 24ZM48.7159 19.4375H54.8523V21.1307H48.7159V19.4375ZM60.6918 18.8864V24H58.6349V15.2727H60.6009V16.7557H60.7031C60.9039 16.267 61.224 15.8788 61.6634 15.5909C62.1065 15.303 62.6539 15.1591 63.3054 15.1591C63.9077 15.1591 64.4323 15.2879 64.8793 15.5455C65.33 15.803 65.6785 16.1761 65.9247 16.6648C66.1747 17.1534 66.2978 17.7462 66.294 18.4432V24H64.2372V18.7614C64.2372 18.178 64.0857 17.7216 63.7827 17.392C63.4834 17.0625 63.0687 16.8977 62.5384 16.8977C62.1785 16.8977 61.8584 16.9773 61.5781 17.1364C61.3016 17.2917 61.0838 17.517 60.9247 17.8125C60.7694 18.108 60.6918 18.4659 60.6918 18.8864ZM70.8963 24.1761C70.3433 24.1761 69.8452 24.0777 69.402 23.8807C68.9626 23.6799 68.6141 23.3845 68.3565 22.9943C68.1027 22.6042 67.9759 22.1231 67.9759 21.5511C67.9759 21.0587 68.0668 20.6515 68.2486 20.3295C68.4304 20.0076 68.6785 19.75 68.9929 19.5568C69.3073 19.3636 69.6615 19.2178 70.0554 19.1193C70.4531 19.017 70.8641 18.9432 71.2884 18.8977C71.7997 18.8447 72.2145 18.7973 72.5327 18.7557C72.8509 18.7102 73.0819 18.642 73.2259 18.5511C73.3736 18.4564 73.4474 18.3106 73.4474 18.1136V18.0795C73.4474 17.6515 73.3205 17.3201 73.0668 17.0852C72.813 16.8504 72.4474 16.733 71.9702 16.733C71.4664 16.733 71.0668 16.8428 70.7713 17.0625C70.4796 17.2822 70.2827 17.5417 70.1804 17.8409L68.2599 17.5682C68.4115 17.0379 68.6615 16.5947 69.0099 16.2386C69.3584 15.8788 69.7846 15.6098 70.2884 15.4318C70.7921 15.25 71.349 15.1591 71.9588 15.1591C72.3793 15.1591 72.7978 15.2083 73.2145 15.3068C73.6312 15.4053 74.0118 15.5682 74.3565 15.7955C74.7012 16.0189 74.9777 16.3239 75.1861 16.7102C75.3982 17.0966 75.5043 17.5795 75.5043 18.1591V24H73.527V22.8011H73.4588C73.3338 23.0436 73.1577 23.2708 72.9304 23.483C72.7069 23.6913 72.4247 23.8598 72.0838 23.9886C71.7467 24.1136 71.3509 24.1761 70.8963 24.1761ZM71.4304 22.6648C71.8433 22.6648 72.2012 22.5833 72.5043 22.4205C72.8073 22.2538 73.0402 22.0341 73.2031 21.7614C73.3698 21.4886 73.4531 21.1913 73.4531 20.8693V19.8409C73.3887 19.8939 73.2789 19.9432 73.1236 19.9886C72.9721 20.0341 72.8016 20.0739 72.6122 20.108C72.4228 20.142 72.2353 20.1723 72.0497 20.1989C71.8641 20.2254 71.7031 20.2481 71.5668 20.267C71.2599 20.3087 70.9853 20.3769 70.7429 20.4716C70.5005 20.5663 70.3092 20.6989 70.169 20.8693C70.0289 21.036 69.9588 21.2519 69.9588 21.517C69.9588 21.8958 70.0971 22.1818 70.3736 22.375C70.6501 22.5682 71.0024 22.6648 71.4304 22.6648ZM79.6293 12.3636V24H77.5724V12.3636H79.6293ZM83.0227 27.2727C82.7424 27.2727 82.483 27.25 82.2443 27.2045C82.0095 27.1629 81.822 27.1136 81.6818 27.0568L82.1591 25.4545C82.4583 25.5417 82.7254 25.5833 82.9602 25.5795C83.1951 25.5758 83.4015 25.5019 83.5795 25.358C83.7614 25.2178 83.9148 24.983 84.0398 24.6534L84.2159 24.1818L81.0511 15.2727H83.233L85.2443 21.8636H85.3352L87.3523 15.2727H89.5398L86.0455 25.0568C85.8826 25.5189 85.6667 25.9148 85.3977 26.2443C85.1288 26.5777 84.7992 26.8314 84.4091 27.0057C84.0227 27.1837 83.5606 27.2727 83.0227 27.2727ZM97.8608 17.5795L95.9858 17.7841C95.9328 17.5947 95.84 17.4167 95.7074 17.25C95.5786 17.0833 95.4044 16.9489 95.1847 16.8466C94.965 16.7443 94.696 16.6932 94.3778 16.6932C93.9498 16.6932 93.59 16.786 93.2983 16.9716C93.0104 17.1572 92.8684 17.3977 92.8722 17.6932C92.8684 17.947 92.9612 18.1534 93.1506 18.3125C93.3438 18.4716 93.6619 18.6023 94.1051 18.7045L95.5938 19.0227C96.4195 19.2008 97.0331 19.483 97.4347 19.8693C97.84 20.2557 98.0445 20.7614 98.0483 21.3864C98.0445 21.9356 97.8835 22.4205 97.5653 22.8409C97.2509 23.2576 96.8134 23.5833 96.2528 23.8182C95.6922 24.053 95.0483 24.1705 94.321 24.1705C93.2528 24.1705 92.393 23.947 91.7415 23.5C91.09 23.0492 90.7017 22.4223 90.5767 21.6193L92.5824 21.4261C92.6733 21.8201 92.8665 22.1174 93.1619 22.3182C93.4574 22.5189 93.8419 22.6193 94.3153 22.6193C94.804 22.6193 95.196 22.5189 95.4915 22.3182C95.7907 22.1174 95.9403 21.8693 95.9403 21.5739C95.9403 21.3239 95.8438 21.1174 95.6506 20.9545C95.4612 20.7917 95.1657 20.6667 94.7642 20.5795L93.2756 20.267C92.4384 20.0928 91.8191 19.7992 91.4176 19.3864C91.0161 18.9697 90.8172 18.4432 90.821 17.8068C90.8172 17.2689 90.9631 16.803 91.2585 16.4091C91.5578 16.0114 91.9725 15.7045 92.5028 15.4886C93.0369 15.2689 93.6525 15.1591 94.3494 15.1591C95.3722 15.1591 96.1771 15.3769 96.7642 15.8125C97.3551 16.2481 97.7206 16.8371 97.8608 17.5795ZM103.608 24.1705C102.733 24.1705 101.977 23.9886 101.341 23.625C100.708 23.2576 100.222 22.7386 99.8807 22.0682C99.5398 21.3939 99.3693 20.6004 99.3693 19.6875C99.3693 18.7898 99.5398 18.0019 99.8807 17.3239C100.225 16.642 100.706 16.1117 101.324 15.733C101.941 15.3504 102.667 15.1591 103.5 15.1591C104.038 15.1591 104.545 15.2462 105.023 15.4205C105.504 15.5909 105.928 15.8561 106.295 16.2159C106.667 16.5758 106.958 17.0341 107.17 17.5909C107.383 18.1439 107.489 18.803 107.489 19.5682V20.1989H100.335V18.8125H105.517C105.513 18.4186 105.428 18.0682 105.261 17.7614C105.095 17.4508 104.862 17.2064 104.562 17.0284C104.267 16.8504 103.922 16.7614 103.528 16.7614C103.108 16.7614 102.739 16.8636 102.42 17.0682C102.102 17.2689 101.854 17.5341 101.676 17.8636C101.502 18.1894 101.413 18.5473 101.409 18.9375V20.1477C101.409 20.6553 101.502 21.0909 101.688 21.4545C101.873 21.8144 102.133 22.0909 102.466 22.2841C102.799 22.4735 103.189 22.5682 103.636 22.5682C103.936 22.5682 104.206 22.5265 104.449 22.4432C104.691 22.3561 104.902 22.2292 105.08 22.0625C105.258 21.8958 105.392 21.6894 105.483 21.4432L107.403 21.6591C107.282 22.1667 107.051 22.6098 106.71 22.9886C106.373 23.3636 105.941 23.6553 105.415 23.8636C104.888 24.0682 104.286 24.1705 103.608 24.1705Z" fill="#73120F"/>
</svg>
