<svg width="113" height="38" viewBox="0 0 113 38" fill="none" xmlns="http://www.w3.org/2000/svg">
<rect x="0.2" y="0.2" width="112.6" height="37.6" rx="18.8" fill="#321EE5"/>
<rect x="0.2" y="0.2" width="112.6" height="37.6" rx="18.8" fill="white" fill-opacity="0.81"/>
<rect x="0.2" y="0.2" width="112.6" height="37.6" rx="18.8" stroke="#0F1173" stroke-width="0.4"/>
<path d="M57.108 16.2898H54.983C54.9223 15.9413 54.8106 15.6326 54.6477 15.3636C54.4848 15.0909 54.2822 14.8598 54.0398 14.6705C53.7973 14.4811 53.5208 14.339 53.2102 14.2443C52.9034 14.1458 52.572 14.0966 52.2159 14.0966C51.5833 14.0966 51.0227 14.2557 50.5341 14.5739C50.0455 14.8883 49.6629 15.3504 49.3864 15.9602C49.1098 16.5663 48.9716 17.3068 48.9716 18.1818C48.9716 19.072 49.1098 19.822 49.3864 20.4318C49.6667 21.0379 50.0492 21.4962 50.5341 21.8068C51.0227 22.1136 51.5814 22.267 52.2102 22.267C52.5587 22.267 52.8845 22.2216 53.1875 22.1307C53.4943 22.036 53.7689 21.8977 54.0114 21.7159C54.2576 21.5341 54.464 21.3106 54.6307 21.0455C54.8011 20.7803 54.9186 20.4773 54.983 20.1364L57.108 20.1477C57.0284 20.7008 56.8561 21.2197 56.5909 21.7045C56.3295 22.1894 55.9867 22.6174 55.5625 22.9886C55.1383 23.3561 54.642 23.6439 54.0739 23.8523C53.5057 24.0568 52.875 24.1591 52.1818 24.1591C51.1591 24.1591 50.2462 23.9223 49.4432 23.4489C48.6402 22.9754 48.0076 22.2917 47.5455 21.3977C47.0833 20.5038 46.8523 19.4318 46.8523 18.1818C46.8523 16.928 47.0852 15.8561 47.5511 14.9659C48.017 14.072 48.6515 13.3883 49.4545 12.9148C50.2576 12.4413 51.1667 12.2045 52.1818 12.2045C52.8295 12.2045 53.4318 12.2955 53.9886 12.4773C54.5455 12.6591 55.0417 12.9261 55.4773 13.2784C55.9129 13.6269 56.2708 14.0549 56.5511 14.5625C56.8352 15.0663 57.0208 15.642 57.108 16.2898ZM61.0043 18.8864V24H58.9474V12.3636H60.9588V16.7557H61.0611C61.2656 16.2633 61.5819 15.875 62.0099 15.5909C62.4418 15.303 62.991 15.1591 63.6577 15.1591C64.2637 15.1591 64.7921 15.286 65.2429 15.5398C65.6937 15.7936 66.0421 16.1648 66.2884 16.6534C66.5384 17.142 66.6634 17.7386 66.6634 18.4432V24H64.6065V18.7614C64.6065 18.1742 64.455 17.7178 64.152 17.392C63.8527 17.0625 63.4323 16.8977 62.8906 16.8977C62.527 16.8977 62.2012 16.9773 61.9134 17.1364C61.6293 17.2917 61.4058 17.517 61.2429 17.8125C61.0838 18.108 61.0043 18.4659 61.0043 18.8864ZM71.2713 24.1761C70.7183 24.1761 70.2202 24.0777 69.777 23.8807C69.3376 23.6799 68.9891 23.3845 68.7315 22.9943C68.4777 22.6042 68.3509 22.1231 68.3509 21.5511C68.3509 21.0587 68.4418 20.6515 68.6236 20.3295C68.8054 20.0076 69.0535 19.75 69.3679 19.5568C69.6823 19.3636 70.0365 19.2178 70.4304 19.1193C70.8281 19.017 71.2391 18.9432 71.6634 18.8977C72.1747 18.8447 72.5895 18.7973 72.9077 18.7557C73.2259 18.7102 73.4569 18.642 73.6009 18.5511C73.7486 18.4564 73.8224 18.3106 73.8224 18.1136V18.0795C73.8224 17.6515 73.6955 17.3201 73.4418 17.0852C73.188 16.8504 72.8224 16.733 72.3452 16.733C71.8414 16.733 71.4418 16.8428 71.1463 17.0625C70.8546 17.2822 70.6577 17.5417 70.5554 17.8409L68.6349 17.5682C68.7865 17.0379 69.0365 16.5947 69.3849 16.2386C69.7334 15.8788 70.1596 15.6098 70.6634 15.4318C71.1671 15.25 71.724 15.1591 72.3338 15.1591C72.7543 15.1591 73.1728 15.2083 73.5895 15.3068C74.0062 15.4053 74.3868 15.5682 74.7315 15.7955C75.0762 16.0189 75.3527 16.3239 75.5611 16.7102C75.7732 17.0966 75.8793 17.5795 75.8793 18.1591V24H73.902V22.8011H73.8338C73.7088 23.0436 73.5327 23.2708 73.3054 23.483C73.0819 23.6913 72.7997 23.8598 72.4588 23.9886C72.1217 24.1136 71.7259 24.1761 71.2713 24.1761ZM71.8054 22.6648C72.2183 22.6648 72.5762 22.5833 72.8793 22.4205C73.1823 22.2538 73.4152 22.0341 73.5781 21.7614C73.7448 21.4886 73.8281 21.1913 73.8281 20.8693V19.8409C73.7637 19.8939 73.6539 19.9432 73.4986 19.9886C73.3471 20.0341 73.1766 20.0739 72.9872 20.108C72.7978 20.142 72.6103 20.1723 72.4247 20.1989C72.2391 20.2254 72.0781 20.2481 71.9418 20.267C71.6349 20.3087 71.3603 20.3769 71.1179 20.4716C70.8755 20.5663 70.6842 20.6989 70.544 20.8693C70.4039 21.036 70.3338 21.2519 70.3338 21.517C70.3338 21.8958 70.4721 22.1818 70.7486 22.375C71.0251 22.5682 71.3774 22.6648 71.8054 22.6648ZM77.9474 24V15.2727H79.9418V16.7273H80.0327C80.1918 16.2235 80.4645 15.8352 80.8509 15.5625C81.241 15.286 81.6861 15.1477 82.1861 15.1477C82.2997 15.1477 82.4266 15.1534 82.5668 15.1648C82.7107 15.1723 82.83 15.1856 82.9247 15.2045V17.0966C82.8376 17.0663 82.6993 17.0398 82.5099 17.017C82.3243 16.9905 82.1444 16.9773 81.9702 16.9773C81.5952 16.9773 81.258 17.0587 80.9588 17.2216C80.6634 17.3807 80.4304 17.6023 80.2599 17.8864C80.0895 18.1705 80.0043 18.4981 80.0043 18.8693V24H77.9474ZM89.1179 15.2727V16.8636H84.1009V15.2727H89.1179ZM85.3395 13.1818H87.3963V21.375C87.3963 21.6515 87.438 21.8636 87.5213 22.0114C87.6084 22.1553 87.7221 22.2538 87.8622 22.3068C88.0024 22.3598 88.1577 22.3864 88.3281 22.3864C88.4569 22.3864 88.5743 22.3769 88.6804 22.358C88.7902 22.339 88.8736 22.322 88.9304 22.3068L89.277 23.9148C89.1671 23.9527 89.0099 23.9943 88.8054 24.0398C88.6046 24.0852 88.3584 24.1117 88.0668 24.1193C87.5516 24.1345 87.0876 24.0568 86.6747 23.8864C86.2618 23.7121 85.9342 23.4432 85.6918 23.0795C85.4531 22.7159 85.3357 22.2614 85.3395 21.7159V13.1818Z" fill="#0F1173"/>
<path d="M19.5 25.5L18 24L25.5 16.5L29.5 20.5L36.6 12.5L38 13.9L29.5 23.5L25.5 19.5L19.5 25.5Z" fill="#0F1173"/>
</svg>
