<svg width="117" height="38" viewBox="0 0 117 38" fill="none" xmlns="http://www.w3.org/2000/svg">
<rect x="0.2" y="0.2" width="116.6" height="37.6" rx="18.8" stroke="#73730F" stroke-width="0.4"/>
<path d="M27 28V21.4L22.35 26.075L20.925 24.65L25.6 20H19V18H25.6L20.925 13.35L22.35 11.925L27 16.6V10H29V16.6L33.65 11.925L35.075 13.35L30.4 18H37V20H30.4L35.075 24.65L33.65 26.075L29 21.4V28H27Z" fill="black"/>
<path d="M47.1477 24V12.3636H51.5114C52.4053 12.3636 53.1553 12.5303 53.7614 12.8636C54.3712 13.197 54.8314 13.6553 55.142 14.2386C55.4564 14.8182 55.6136 15.4773 55.6136 16.2159C55.6136 16.9621 55.4564 17.625 55.142 18.2045C54.8277 18.7841 54.3636 19.2405 53.75 19.5739C53.1364 19.9034 52.3807 20.0682 51.483 20.0682H48.5909V18.3352H51.1989C51.7216 18.3352 52.1496 18.2443 52.483 18.0625C52.8163 17.8807 53.0625 17.6307 53.2216 17.3125C53.3845 16.9943 53.4659 16.6288 53.4659 16.2159C53.4659 15.803 53.3845 15.4394 53.2216 15.125C53.0625 14.8106 52.8144 14.5663 52.4773 14.392C52.1439 14.214 51.714 14.125 51.1875 14.125H49.2557V24H47.1477ZM57.3537 24V15.2727H59.348V16.7273H59.4389C59.598 16.2235 59.8707 15.8352 60.2571 15.5625C60.6473 15.286 61.0923 15.1477 61.5923 15.1477C61.706 15.1477 61.8329 15.1534 61.973 15.1648C62.117 15.1723 62.2363 15.1856 62.331 15.2045V17.0966C62.2438 17.0663 62.1056 17.0398 61.9162 17.017C61.7306 16.9905 61.5507 16.9773 61.3764 16.9773C61.0014 16.9773 60.6643 17.0587 60.3651 17.2216C60.0696 17.3807 59.8366 17.6023 59.6662 17.8864C59.4957 18.1705 59.4105 18.4981 59.4105 18.8693V24H57.3537ZM67.2017 24.1705C66.3267 24.1705 65.571 23.9886 64.9347 23.625C64.3021 23.2576 63.8153 22.7386 63.4744 22.0682C63.1335 21.3939 62.9631 20.6004 62.9631 19.6875C62.9631 18.7898 63.1335 18.0019 63.4744 17.3239C63.8191 16.642 64.3002 16.1117 64.9176 15.733C65.535 15.3504 66.2604 15.1591 67.0938 15.1591C67.6316 15.1591 68.1392 15.2462 68.6165 15.4205C69.0975 15.5909 69.5218 15.8561 69.8892 16.2159C70.2604 16.5758 70.5521 17.0341 70.7642 17.5909C70.9763 18.1439 71.0824 18.803 71.0824 19.5682V20.1989H63.929V18.8125H69.1108C69.107 18.4186 69.0218 18.0682 68.8551 17.7614C68.6884 17.4508 68.4555 17.2064 68.1562 17.0284C67.8608 16.8504 67.5161 16.7614 67.1222 16.7614C66.7017 16.7614 66.3324 16.8636 66.0142 17.0682C65.696 17.2689 65.4479 17.5341 65.2699 17.8636C65.0956 18.1894 65.0066 18.5473 65.0028 18.9375V20.1477C65.0028 20.6553 65.0956 21.0909 65.2812 21.4545C65.4669 21.8144 65.7263 22.0909 66.0597 22.2841C66.393 22.4735 66.7831 22.5682 67.2301 22.5682C67.5294 22.5682 67.8002 22.5265 68.0426 22.4432C68.285 22.3561 68.4953 22.2292 68.6733 22.0625C68.8513 21.8958 68.9858 21.6894 69.0767 21.4432L70.9972 21.6591C70.8759 22.1667 70.6449 22.6098 70.304 22.9886C69.9669 23.3636 69.535 23.6553 69.0085 23.8636C68.482 24.0682 67.8797 24.1705 67.2017 24.1705ZM76.0611 24.1534C75.3755 24.1534 74.7618 23.9773 74.2202 23.625C73.6785 23.2727 73.2505 22.7614 72.9361 22.0909C72.6217 21.4205 72.4645 20.6061 72.4645 19.6477C72.4645 18.678 72.6236 17.8598 72.9418 17.1932C73.2637 16.5227 73.6974 16.017 74.2429 15.6761C74.7884 15.3314 75.3963 15.1591 76.0668 15.1591C76.5781 15.1591 76.9986 15.2462 77.3281 15.4205C77.6577 15.5909 77.919 15.7973 78.1122 16.0398C78.3054 16.2784 78.455 16.5038 78.5611 16.7159H78.6463V12.3636H80.7088V24H78.6861V22.625H78.5611C78.455 22.8371 78.3016 23.0625 78.1009 23.3011C77.9001 23.536 77.6349 23.7367 77.3054 23.9034C76.9759 24.0701 76.5611 24.1534 76.0611 24.1534ZM76.6349 22.4659C77.0705 22.4659 77.4418 22.3485 77.7486 22.1136C78.0554 21.875 78.2884 21.5436 78.4474 21.1193C78.6065 20.6951 78.6861 20.2008 78.6861 19.6364C78.6861 19.072 78.6065 18.5814 78.4474 18.1648C78.2921 17.7481 78.0611 17.4242 77.7543 17.1932C77.4512 16.9621 77.0781 16.8466 76.6349 16.8466C76.1766 16.8466 75.794 16.9659 75.4872 17.2045C75.1804 17.4432 74.9493 17.7727 74.794 18.1932C74.6387 18.6136 74.5611 19.0947 74.5611 19.6364C74.5611 20.1818 74.6387 20.6686 74.794 21.0966C74.9531 21.5208 75.1861 21.8561 75.4929 22.1023C75.8035 22.3447 76.1842 22.4659 76.6349 22.4659ZM82.9006 24V15.2727H84.9574V24H82.9006ZM83.9347 14.0341C83.6089 14.0341 83.3286 13.9261 83.0938 13.7102C82.8589 13.4905 82.7415 13.2273 82.7415 12.9205C82.7415 12.6098 82.8589 12.3466 83.0938 12.1307C83.3286 11.911 83.6089 11.8011 83.9347 11.8011C84.2642 11.8011 84.5445 11.911 84.7756 12.1307C85.0104 12.3466 85.1278 12.6098 85.1278 12.9205C85.1278 13.2273 85.0104 13.4905 84.7756 13.7102C84.5445 13.9261 84.2642 14.0341 83.9347 14.0341ZM90.8793 24.1705C90.008 24.1705 89.2599 23.9792 88.6349 23.5966C88.0137 23.214 87.5346 22.6856 87.1974 22.0114C86.8641 21.3333 86.6974 20.553 86.6974 19.6705C86.6974 18.7841 86.8679 18.0019 87.2088 17.3239C87.5497 16.642 88.0308 16.1117 88.652 15.733C89.277 15.3504 90.0156 15.1591 90.8679 15.1591C91.5762 15.1591 92.2031 15.2898 92.7486 15.5511C93.2978 15.8087 93.7353 16.1742 94.0611 16.6477C94.3868 17.1174 94.5724 17.6667 94.6179 18.2955H92.652C92.5724 17.875 92.383 17.5246 92.0838 17.2443C91.7884 16.9602 91.3925 16.8182 90.8963 16.8182C90.4759 16.8182 90.1065 16.9318 89.7884 17.1591C89.4702 17.3826 89.2221 17.7045 89.044 18.125C88.8698 18.5455 88.7827 19.0492 88.7827 19.6364C88.7827 20.2311 88.8698 20.7424 89.044 21.1705C89.2183 21.5947 89.4626 21.9223 89.777 22.1534C90.0952 22.3807 90.4683 22.4943 90.8963 22.4943C91.1993 22.4943 91.4702 22.4375 91.7088 22.3239C91.9512 22.2064 92.1539 22.0379 92.3168 21.8182C92.4796 21.5985 92.5914 21.3314 92.652 21.017H94.6179C94.5687 21.6345 94.3868 22.1818 94.0724 22.6591C93.758 23.1326 93.33 23.5038 92.7884 23.7727C92.2467 24.0379 91.6103 24.1705 90.8793 24.1705ZM100.665 15.2727V16.8636H95.6477V15.2727H100.665ZM96.8864 13.1818H98.9432V21.375C98.9432 21.6515 98.9848 21.8636 99.0682 22.0114C99.1553 22.1553 99.2689 22.2538 99.4091 22.3068C99.5492 22.3598 99.7045 22.3864 99.875 22.3864C100.004 22.3864 100.121 22.3769 100.227 22.358C100.337 22.339 100.42 22.322 100.477 22.3068L100.824 23.9148C100.714 23.9527 100.557 23.9943 100.352 24.0398C100.152 24.0852 99.9053 24.1117 99.6136 24.1193C99.0985 24.1345 98.6345 24.0568 98.2216 23.8864C97.8087 23.7121 97.4811 23.4432 97.2386 23.0795C97 22.7159 96.8826 22.2614 96.8864 21.7159V13.1818Z" fill="black"/>
</svg>
